<svg xmlns="http://www.w3.org/2000/svg" width="56.447" height="44.155" viewBox="0 0 56.447 44.155">
  <path id="Path_130" data-name="Path 130" d="M36.593,41.908l-.751-29.076,7.414.023a3.525,3.525,0,0,1,3.255,2.2L57.243,41.447l-.458-28.855,6.866.021a3.525,3.525,0,0,1,3.514,3.519l.082,40.381-10.5.089a5.508,5.508,0,0,1-5.2-3.557l-7-18.48-.567,22.182-10.711-.084a5.513,5.513,0,0,1-5.016-3.324L10.8,12.954l8.354.072a5.508,5.508,0,0,1,4.907,3.1Z" transform="translate(-10.801 -12.592)" fill="#ffbe24"/>
</svg>
