<svg xmlns="http://www.w3.org/2000/svg" width="134.294" height="54.349" viewBox="0 0 134.294 54.349">
  <g id="Group_6119" data-name="Group 6119" transform="translate(-1564.608 -191)">
    <path id="Path_111" data-name="Path 111" d="M221.995,56.354V12.891h19.427v8.527h-9.548V30h9.162v8.252h-9.162V48.268h10.183V56.85H222.491a.5.5,0,0,1-.5-.5" transform="translate(1401.599 178.58)" fill="#413689"/>
    <path id="Path_112" data-name="Path 112" d="M307.165,56.85V12.891h13.383q5.438,0,7.935,2.773a11.043,11.043,0,0,1,2.524,7.6l.11,20.531q0,6.595-2.58,9.823t-8.32,3.229Zm9.769-36.178V48.82a1.3,1.3,0,0,1,.331-.028c.111,0,.318.01.621.028s.548.028.731.028q2.787,0,2.788-2.345V24.812a5.27,5.27,0,0,0-.759-3.3,3.3,3.3,0,0,0-2.636-.9c-.2,0-.561.019-1.076.055" transform="translate(1340.216 178.58)" fill="#413689"/>
    <path id="Path_113" data-name="Path 113" d="M405.872,43.77V22.824q0-5.491,2.966-8.512t8.927-3.105q6.127.083,9.092,3.105t2.967,8.512V43.77a16.514,16.514,0,0,1-.676,4.871,11.594,11.594,0,0,1-2.057,3.9,8.9,8.9,0,0,1-3.74,2.649,13.59,13.59,0,0,1-5.422.856,14.1,14.1,0,0,1-5.587-.856,8.9,8.9,0,0,1-3.74-2.649,11.59,11.59,0,0,1-2.056-3.9,16.488,16.488,0,0,1-.675-4.871m11.976,3.67a1.98,1.98,0,0,0,.925-.208,1.509,1.509,0,0,0,.634-.634,5.694,5.694,0,0,0,.372-.815,4.2,4.2,0,0,0,.193-1.035q.055-.648.068-.994t.014-.952V24.922q0-.165.014-.663t0-.744c-.009-.166-.019-.411-.028-.731a3.541,3.541,0,0,0-.082-.746c-.045-.175-.1-.4-.166-.662a1.548,1.548,0,0,0-.262-.607c-.11-.139-.239-.285-.386-.442a1.2,1.2,0,0,0-.551-.331,2.643,2.643,0,0,0-.745-.1,2.442,2.442,0,0,0-1.007.194,1.469,1.469,0,0,0-.676.621q-.249.428-.414.772a3.023,3.023,0,0,0-.221,1.022q-.055.675-.055.966v19c0,.4,0,.727.014.966s.031.588.069,1.047a4.512,4.512,0,0,0,.206,1.119,6.747,6.747,0,0,0,.4.9,1.653,1.653,0,0,0,.676.7,2.062,2.062,0,0,0,1.007.234" transform="translate(1269.077 179.794)" fill="#413689"/>
    <path id="Path_114" data-name="Path 114" d="M334,186.288a.9.9,0,0,0-.409-.325,1.434,1.434,0,0,0-.539-.1,1.39,1.39,0,0,0-.325.038.863.863,0,0,0-.283.123.63.63,0,0,0-.2.218.623.623,0,0,0-.077.318.494.494,0,0,0,.191.42,1.873,1.873,0,0,0,.474.253q.282.107.619.206a2.541,2.541,0,0,1,.619.275,1.533,1.533,0,0,1,.473.467,1.38,1.38,0,0,1,.192.772,1.7,1.7,0,0,1-.16.76,1.542,1.542,0,0,1-.433.54,1.849,1.849,0,0,1-.63.321,2.646,2.646,0,0,1-.757.107,2.811,2.811,0,0,1-.968-.168,1.942,1.942,0,0,1-.806-.566l.727-.7a1.225,1.225,0,0,0,.462.416,1.3,1.3,0,0,0,.608.149,1.28,1.28,0,0,0,.337-.046,1.022,1.022,0,0,0,.306-.137.727.727,0,0,0,.221-.233.632.632,0,0,0,.084-.325.565.565,0,0,0-.191-.459,1.7,1.7,0,0,0-.474-.271c-.188-.074-.395-.144-.619-.211a2.575,2.575,0,0,1-.62-.271,1.5,1.5,0,0,1-.473-.459,1.367,1.367,0,0,1-.191-.768,1.457,1.457,0,0,1,.172-.727,1.577,1.577,0,0,1,.45-.509,1.992,1.992,0,0,1,.639-.3,2.756,2.756,0,0,1,.734-.1,2.713,2.713,0,0,1,.833.129,1.927,1.927,0,0,1,.719.429Z" transform="translate(1323.051 54.548)" fill="#897fcd"/>
    <path id="Path_115" data-name="Path 115" d="M334,186.288a.9.9,0,0,0-.409-.325,1.434,1.434,0,0,0-.539-.1,1.39,1.39,0,0,0-.325.038.863.863,0,0,0-.283.123.63.63,0,0,0-.2.218.623.623,0,0,0-.077.318.494.494,0,0,0,.191.42,1.873,1.873,0,0,0,.474.253q.282.107.619.206a2.541,2.541,0,0,1,.619.275,1.533,1.533,0,0,1,.473.467,1.38,1.38,0,0,1,.192.772,1.7,1.7,0,0,1-.16.76,1.542,1.542,0,0,1-.433.54,1.849,1.849,0,0,1-.63.321,2.646,2.646,0,0,1-.757.107,2.811,2.811,0,0,1-.968-.168,1.942,1.942,0,0,1-.806-.566l.727-.7a1.225,1.225,0,0,0,.462.416,1.3,1.3,0,0,0,.608.149,1.28,1.28,0,0,0,.337-.046,1.022,1.022,0,0,0,.306-.137.727.727,0,0,0,.221-.233.632.632,0,0,0,.084-.325.565.565,0,0,0-.191-.459,1.7,1.7,0,0,0-.474-.271c-.188-.074-.395-.144-.619-.211a2.575,2.575,0,0,1-.62-.271,1.5,1.5,0,0,1-.473-.459,1.367,1.367,0,0,1-.191-.768,1.457,1.457,0,0,1,.172-.727,1.577,1.577,0,0,1,.45-.509,1.992,1.992,0,0,1,.639-.3,2.756,2.756,0,0,1,.734-.1,2.713,2.713,0,0,1,.833.129,1.927,1.927,0,0,1,.719.429Z" transform="translate(1323.051 54.548)" fill="none" stroke="#fff" stroke-miterlimit="10" stroke-width="0.25"/>
    <path id="Path_116" data-name="Path 116" d="M346.969,187.853a3.125,3.125,0,0,1,.215-1.181,2.65,2.65,0,0,1,.592-.906,2.61,2.61,0,0,1,.9-.577,3.176,3.176,0,0,1,1.151-.2,3.284,3.284,0,0,1,1.158.2,2.55,2.55,0,0,1,1.51,1.464,3.052,3.052,0,0,1,.214,1.173,3.012,3.012,0,0,1-.214,1.159,2.61,2.61,0,0,1-1.51,1.487,3.37,3.37,0,0,1-2.309,0,2.577,2.577,0,0,1-1.494-1.464,3,3,0,0,1-.215-1.155m1.009-.061a2.31,2.31,0,0,0,.134.8,1.859,1.859,0,0,0,.378.635,1.746,1.746,0,0,0,.585.421,1.831,1.831,0,0,0,.761.153,1.86,1.86,0,0,0,.764-.153,1.743,1.743,0,0,0,.589-.421,1.882,1.882,0,0,0,.378-.635,2.332,2.332,0,0,0,.134-.8,2.119,2.119,0,0,0-.134-.756,1.875,1.875,0,0,0-.378-.616,1.728,1.728,0,0,0-.589-.413,1.915,1.915,0,0,0-.764-.149,1.885,1.885,0,0,0-.761.149,1.731,1.731,0,0,0-.585.413,1.843,1.843,0,0,0-.378.616,2.1,2.1,0,0,0-.134.756" transform="translate(1311.529 54.549)" fill="#897fcd"/>
    <path id="Path_117" data-name="Path 117" d="M346.969,187.853a3.125,3.125,0,0,1,.215-1.181,2.65,2.65,0,0,1,.592-.906,2.61,2.61,0,0,1,.9-.577,3.176,3.176,0,0,1,1.151-.2,3.284,3.284,0,0,1,1.158.2,2.55,2.55,0,0,1,1.51,1.464,3.052,3.052,0,0,1,.214,1.173,3.012,3.012,0,0,1-.214,1.159,2.61,2.61,0,0,1-1.51,1.487,3.37,3.37,0,0,1-2.309,0,2.577,2.577,0,0,1-1.494-1.464A3,3,0,0,1,346.969,187.853Zm1.009-.061a2.31,2.31,0,0,0,.134.8,1.859,1.859,0,0,0,.378.635,1.746,1.746,0,0,0,.585.421,1.831,1.831,0,0,0,.761.153,1.86,1.86,0,0,0,.764-.153,1.743,1.743,0,0,0,.589-.421,1.882,1.882,0,0,0,.378-.635,2.332,2.332,0,0,0,.134-.8,2.119,2.119,0,0,0-.134-.756,1.875,1.875,0,0,0-.378-.616,1.728,1.728,0,0,0-.589-.413,1.915,1.915,0,0,0-.764-.149,1.885,1.885,0,0,0-.761.149,1.731,1.731,0,0,0-.585.413,1.843,1.843,0,0,0-.378.616A2.1,2.1,0,0,0,347.978,187.793Z" transform="translate(1311.529 54.549)" fill="none" stroke="#fff" stroke-miterlimit="10" stroke-width="0.25"/>
    <path id="Path_118" data-name="Path 118" d="M370.813,185.479h.964v4.541h2.3v.872h-3.264Z" transform="translate(1294.345 54.194)" fill="#897fcd"/>
    <path id="Path_119" data-name="Path 119" d="M370.813,185.479h.964v4.541h2.3v.872h-3.264Z" transform="translate(1294.345 54.194)" fill="none" stroke="#fff" stroke-miterlimit="10" stroke-width="0.25"/>
    <path id="Path_120" data-name="Path 120" d="M389.293,188.905a2.221,2.221,0,0,1-.169.882,1.976,1.976,0,0,1-.459.669,2.018,2.018,0,0,1-.688.425,2.58,2.58,0,0,1-1.729,0,2.057,2.057,0,0,1-.692-.425,1.9,1.9,0,0,1-.459-.669,2.248,2.248,0,0,1-.165-.882V185.48h.964v3.395a1.533,1.533,0,0,0,.061.416,1.171,1.171,0,0,0,.2.4,1.081,1.081,0,0,0,.375.3,1.463,1.463,0,0,0,1.154,0,1.094,1.094,0,0,0,.376-.3,1.209,1.209,0,0,0,.2-.4,1.574,1.574,0,0,0,.06-.416V185.48h.964v3.425Z" transform="translate(1284.167 54.194)" fill="#897fcd"/>
    <path id="Path_121" data-name="Path 121" d="M389.293,188.905a2.221,2.221,0,0,1-.169.882,1.976,1.976,0,0,1-.459.669,2.018,2.018,0,0,1-.688.425,2.58,2.58,0,0,1-1.729,0,2.057,2.057,0,0,1-.692-.425,1.9,1.9,0,0,1-.459-.669,2.248,2.248,0,0,1-.165-.882V185.48h.964v3.395a1.533,1.533,0,0,0,.061.416,1.171,1.171,0,0,0,.2.4,1.081,1.081,0,0,0,.375.3,1.463,1.463,0,0,0,1.154,0,1.094,1.094,0,0,0,.376-.3,1.209,1.209,0,0,0,.2-.4,1.574,1.574,0,0,0,.06-.416V185.48h.964v3.425Z" transform="translate(1284.167 54.194)" fill="none" stroke="#fff" stroke-miterlimit="10" stroke-width="0.25"/>
    <path id="Path_122" data-name="Path 122" d="M404.47,186.351h-1.66v-.871h4.282v.871h-1.66v4.541h-.963Z" transform="translate(1271.284 54.194)" fill="#897fcd"/>
    <path id="Path_123" data-name="Path 123" d="M404.47,186.351h-1.66v-.871h4.282v.871h-1.66v4.541h-.963Z" transform="translate(1271.284 54.194)" fill="none" stroke="#fff" stroke-miterlimit="10" stroke-width="0.25"/>
    <rect id="Rectangle_95" data-name="Rectangle 95" width="0.964" height="5.413" transform="translate(1679.011 239.674)" fill="#897fcd"/>
    <rect id="Rectangle_96" data-name="Rectangle 96" width="0.964" height="5.413" transform="translate(1679.011 239.674)" fill="none" stroke="#fff" stroke-miterlimit="10" stroke-width="0.25"/>
    <path id="Path_124" data-name="Path 124" d="M427.064,187.853a3.132,3.132,0,0,1,.214-1.181,2.655,2.655,0,0,1,.592-.906,2.609,2.609,0,0,1,.9-.577,3.176,3.176,0,0,1,1.151-.2,3.284,3.284,0,0,1,1.158.2,2.55,2.55,0,0,1,1.51,1.464,3.059,3.059,0,0,1,.214,1.173,3.019,3.019,0,0,1-.214,1.159,2.61,2.61,0,0,1-1.51,1.487,3.37,3.37,0,0,1-2.309,0,2.581,2.581,0,0,1-1.495-1.464,3.012,3.012,0,0,1-.214-1.155m1.01-.061a2.31,2.31,0,0,0,.134.8,1.864,1.864,0,0,0,.378.635,1.745,1.745,0,0,0,.585.421,1.83,1.83,0,0,0,.761.153,1.861,1.861,0,0,0,.765-.153,1.75,1.75,0,0,0,.588-.421,1.879,1.879,0,0,0,.378-.635,2.33,2.33,0,0,0,.134-.8,2.118,2.118,0,0,0-.134-.756,1.874,1.874,0,0,0-.378-.616,1.735,1.735,0,0,0-.588-.413,1.916,1.916,0,0,0-.765-.149,1.885,1.885,0,0,0-.761.149,1.732,1.732,0,0,0-.585.413,1.848,1.848,0,0,0-.378.616,2.1,2.1,0,0,0-.134.756" transform="translate(1253.804 54.549)" fill="#897fcd"/>
    <path id="Path_125" data-name="Path 125" d="M427.064,187.853a3.132,3.132,0,0,1,.214-1.181,2.655,2.655,0,0,1,.592-.906,2.609,2.609,0,0,1,.9-.577,3.176,3.176,0,0,1,1.151-.2,3.284,3.284,0,0,1,1.158.2,2.55,2.55,0,0,1,1.51,1.464,3.059,3.059,0,0,1,.214,1.173,3.019,3.019,0,0,1-.214,1.159,2.61,2.61,0,0,1-1.51,1.487,3.37,3.37,0,0,1-2.309,0,2.581,2.581,0,0,1-1.495-1.464A3.012,3.012,0,0,1,427.064,187.853Zm1.01-.061a2.31,2.31,0,0,0,.134.8,1.864,1.864,0,0,0,.378.635,1.745,1.745,0,0,0,.585.421,1.83,1.83,0,0,0,.761.153,1.861,1.861,0,0,0,.765-.153,1.75,1.75,0,0,0,.588-.421,1.879,1.879,0,0,0,.378-.635,2.33,2.33,0,0,0,.134-.8,2.118,2.118,0,0,0-.134-.756,1.874,1.874,0,0,0-.378-.616,1.735,1.735,0,0,0-.588-.413,1.916,1.916,0,0,0-.765-.149,1.885,1.885,0,0,0-.761.149,1.732,1.732,0,0,0-.585.413,1.848,1.848,0,0,0-.378.616A2.1,2.1,0,0,0,428.074,187.793Z" transform="translate(1253.804 54.549)" fill="none" stroke="#fff" stroke-miterlimit="10" stroke-width="0.25"/>
    <path id="Path_126" data-name="Path 126" d="M450.908,185.479h1.276l2.623,4.021h.015v-4.021h.963v5.413h-1.223l-2.676-4.152h-.015v4.152h-.964Z" transform="translate(1236.62 54.194)" fill="#897fcd"/>
    <path id="Path_127" data-name="Path 127" d="M450.908,185.479h1.276l2.623,4.021h.015v-4.021h.963v5.413h-1.223l-2.676-4.152h-.015v4.152h-.964Z" transform="translate(1236.62 54.194)" fill="none" stroke="#fff" stroke-miterlimit="10" stroke-width="0.25"/>
    <path id="Path_128" data-name="Path 128" d="M474.4,186.288a.893.893,0,0,0-.409-.325,1.437,1.437,0,0,0-.54-.1,1.387,1.387,0,0,0-.325.038.867.867,0,0,0-.283.123.616.616,0,0,0-.279.535.494.494,0,0,0,.191.42,1.87,1.87,0,0,0,.474.253q.282.107.619.206a2.547,2.547,0,0,1,.619.275,1.532,1.532,0,0,1,.473.467,1.38,1.38,0,0,1,.192.772,1.7,1.7,0,0,1-.161.76,1.54,1.54,0,0,1-.433.54,1.848,1.848,0,0,1-.63.321,2.646,2.646,0,0,1-.757.107,2.809,2.809,0,0,1-.968-.168,1.939,1.939,0,0,1-.806-.566l.726-.7a1.224,1.224,0,0,0,.463.416,1.3,1.3,0,0,0,.608.149,1.283,1.283,0,0,0,.336-.046,1.025,1.025,0,0,0,.306-.137.731.731,0,0,0,.221-.233.633.633,0,0,0,.084-.325.565.565,0,0,0-.191-.459,1.7,1.7,0,0,0-.474-.271c-.188-.074-.395-.144-.62-.211a2.582,2.582,0,0,1-.62-.271,1.506,1.506,0,0,1-.473-.459,1.37,1.37,0,0,1-.191-.768,1.46,1.46,0,0,1,.172-.727,1.575,1.575,0,0,1,.45-.509,1.994,1.994,0,0,1,.639-.3,2.759,2.759,0,0,1,.734-.1,2.715,2.715,0,0,1,.833.129,1.93,1.93,0,0,1,.719.429Z" transform="translate(1221.863 54.548)" fill="#897fcd"/>
    <path id="Path_129" data-name="Path 129" d="M474.4,186.288a.893.893,0,0,0-.409-.325,1.437,1.437,0,0,0-.54-.1,1.387,1.387,0,0,0-.325.038.867.867,0,0,0-.283.123.616.616,0,0,0-.279.535.494.494,0,0,0,.191.42,1.87,1.87,0,0,0,.474.253q.282.107.619.206a2.547,2.547,0,0,1,.619.275,1.532,1.532,0,0,1,.473.467,1.38,1.38,0,0,1,.192.772,1.7,1.7,0,0,1-.161.76,1.54,1.54,0,0,1-.433.54,1.848,1.848,0,0,1-.63.321,2.646,2.646,0,0,1-.757.107,2.809,2.809,0,0,1-.968-.168,1.939,1.939,0,0,1-.806-.566l.726-.7a1.224,1.224,0,0,0,.463.416,1.3,1.3,0,0,0,.608.149,1.283,1.283,0,0,0,.336-.046,1.025,1.025,0,0,0,.306-.137.731.731,0,0,0,.221-.233.633.633,0,0,0,.084-.325.565.565,0,0,0-.191-.459,1.7,1.7,0,0,0-.474-.271c-.188-.074-.395-.144-.62-.211a2.582,2.582,0,0,1-.62-.271,1.506,1.506,0,0,1-.473-.459,1.37,1.37,0,0,1-.191-.768,1.46,1.46,0,0,1,.172-.727,1.575,1.575,0,0,1,.45-.509,1.994,1.994,0,0,1,.639-.3,2.759,2.759,0,0,1,.734-.1,2.715,2.715,0,0,1,.833.129,1.93,1.93,0,0,1,.719.429Z" transform="translate(1221.863 54.548)" fill="none" stroke="#fff" stroke-miterlimit="10" stroke-width="0.25"/>
    <path id="Path_130" data-name="Path 130" d="M36.593,41.908l-.751-29.076,7.414.023a3.525,3.525,0,0,1,3.255,2.2L57.243,41.447l-.458-28.855,6.866.021a3.525,3.525,0,0,1,3.514,3.519l.082,40.381-10.5.089a5.508,5.508,0,0,1-5.2-3.557l-7-18.48-.567,22.182-10.711-.084a5.513,5.513,0,0,1-5.016-3.324L10.8,12.954l8.354.072a5.508,5.508,0,0,1,4.907,3.1Z" transform="translate(1553.807 178.795)" fill="#ffbe24"/>
    <path id="Path_131" data-name="Path 131" d="M219.741,185.479h2.079a2.844,2.844,0,0,1,1.159.256,2.834,2.834,0,0,1,.566.347,2.307,2.307,0,0,1,.477.518,2.554,2.554,0,0,1,.329.695,3.306,3.306,0,0,1,0,1.782,2.563,2.563,0,0,1-.329.695,2.324,2.324,0,0,1-.477.516,2.771,2.771,0,0,1-1.158.542,2.791,2.791,0,0,1-.566.062h-2.079Zm.642,4.816h1.223a2.921,2.921,0,0,0,.864-.122,1.858,1.858,0,0,0,.689-.378,1.79,1.79,0,0,0,.459-.654,2.8,2.8,0,0,0,0-1.912,1.792,1.792,0,0,0-.459-.654,1.868,1.868,0,0,0-.689-.378,2.923,2.923,0,0,0-.864-.122h-1.223Z" transform="translate(1403.223 54.194)" fill="#897fcd"/>
    <rect id="Rectangle_97" data-name="Rectangle 97" width="0.642" height="5.413" transform="translate(1628.729 239.674)" fill="#897fcd"/>
    <rect id="Rectangle_98" data-name="Rectangle 98" width="0.642" height="5.413" transform="translate(1636.664 239.674)" fill="#897fcd"/>
    <path id="Path_132" data-name="Path 132" d="M251.289,190.17a3.813,3.813,0,0,1-.983.382,4.512,4.512,0,0,1-1.043.123,3.153,3.153,0,0,1-1.162-.207,2.7,2.7,0,0,1-.914-.581,2.6,2.6,0,0,1-.6-.9,3.026,3.026,0,0,1-.214-1.158,2.907,2.907,0,0,1,.226-1.166,2.619,2.619,0,0,1,.623-.894,2.866,2.866,0,0,1,.925-.578,3.086,3.086,0,0,1,1.139-.207,3.3,3.3,0,0,1,1.029.161,2.2,2.2,0,0,1,.883.551l-.482.5a1.842,1.842,0,0,0-.669-.459,2.109,2.109,0,0,0-.806-.16,2.194,2.194,0,0,0-.864.168,2.155,2.155,0,0,0-.692.466,2.1,2.1,0,0,0-.459.712,2.541,2.541,0,0,0,0,1.8,2.156,2.156,0,0,0,.459.716,2.059,2.059,0,0,0,.708.47,2.383,2.383,0,0,0,.909.168,3.1,3.1,0,0,0,.688-.081,2.78,2.78,0,0,0,.657-.232v-1.66H249.4v-.6h1.889v2.66Z" transform="translate(1384.029 54.55)" fill="#897fcd"/>
    <path id="Path_133" data-name="Path 133" d="M279.005,186.086h-1.787V190.9h-.641v-4.811H274.79v-.6h4.215Z" transform="translate(1363.549 54.187)" fill="#897fcd"/>
    <path id="Path_134" data-name="Path 134" d="M311.07,185.49h.642V190.3h2.475v.6H311.07Z" transform="translate(1337.401 54.187)" fill="#897fcd"/>
    <path id="Path_135" data-name="Path 135" d="M289.259,190.9l2.076-5.406h.771l2.213,5.406H293.5l-.631-1.637h-2.26l-.594,1.637Zm1.56-2.22h1.833l-.564-1.5q-.258-.682-.384-1.121a6.878,6.878,0,0,1-.291,1.033Z" transform="translate(1353.121 54.186)" fill="#897fcd"/>
  </g>
</svg>
