<svg xmlns="http://www.w3.org/2000/svg" width="27.99" height="31" viewBox="0 0 27.99 31">
  <g id="send" transform="translate(-24.853)">
    <g id="Group_6676" data-name="Group 6676" transform="translate(24.853 0)">
      <g id="Group_6675" data-name="Group 6675" transform="translate(0 0)">
        <path id="Path_6900" data-name="Path 6900" d="M52.843.43a.455.455,0,0,0-.006-.054l0-.011a.451.451,0,0,0-.012-.047l0-.008A.452.452,0,0,0,52.8.256l0-.008A.461.461,0,0,0,52.769.2L52.764.2a.452.452,0,0,0-.035-.045L52.721.144,52.7.125,52.686.11,52.68.1l0,0A.456.456,0,0,0,52.63.069l-.007,0a.442.442,0,0,0-.044-.023l-.011,0a.45.45,0,0,0-.052-.019l-.009,0L52.46.006l-.014,0a.45.45,0,0,0-.053,0h-.012l-.046,0-.013,0a.436.436,0,0,0-.054.011l-.009,0a.47.47,0,0,0-.048.017l-.006,0L32.6,8.753a.454.454,0,0,0,.369.83L49.9,2.056,34.252,15.969l-7.827-3.478,4.729-2.1a.454.454,0,0,0-.369-.83l-5.662,2.517a.454.454,0,0,0,0,.83l8.8,3.909.97,7.271v.006a.455.455,0,0,0,.014.065l0,.006a.441.441,0,0,0,.024.06l0,.006a.454.454,0,0,0,.033.056l.007.01a.409.409,0,0,0,.091.093l.01.008a.463.463,0,0,0,.055.034l0,0a.455.455,0,0,0,.059.025l.007,0a.46.46,0,0,0,.065.015h.013a.457.457,0,0,0,.06,0h0a.449.449,0,0,0,.058,0l.014,0a.452.452,0,0,0,.111-.033l.01,0a.451.451,0,0,0,.049-.027h0a.441.441,0,0,0,.046-.035l.011-.01.016-.014,3.9-3.842,6.524,5.373a.454.454,0,0,0,.73-.245L52.831.56v0A.447.447,0,0,0,52.841.5s0-.007,0-.011a.462.462,0,0,0,0-.049S52.843.434,52.843.43ZM35.579,22.4l-.762-5.716,13.8-12.263L37.492,18.224l-.006.008c-.008.011-.016.022-.024.033l-.008.013q-.01.017-.019.035l0,.007Zm1.186-.414,1.249-2.748.84.692ZM46.1,24.718l-7.619-6.274,13-16.133Z" transform="translate(-24.853 0)" fill="#fff"/>
      </g>
    </g>
    <g id="Group_6678" data-name="Group 6678" transform="translate(33.881 24.073)">
      <g id="Group_6677" data-name="Group 6677" transform="translate(0)">
        <path id="Path_6901" data-name="Path 6901" d="M178.745,397.731a.454.454,0,0,0-.642,0l-4.012,4.012a.454.454,0,1,0,.642.642l4.012-4.012A.454.454,0,0,0,178.745,397.731Z" transform="translate(-173.958 -397.598)" fill="#fff"/>
      </g>
    </g>
    <g id="Group_6680" data-name="Group 6680" transform="translate(27.893 19.089)">
      <g id="Group_6679" data-name="Group 6679">
        <path id="Path_6902" data-name="Path 6902" d="M79.826,315.415a.454.454,0,0,0-.642,0L75.2,319.4a.454.454,0,0,0,.642.642l3.981-3.981A.454.454,0,0,0,79.826,315.415Z" transform="translate(-75.07 -315.282)" fill="#fff"/>
      </g>
    </g>
    <g id="Group_6682" data-name="Group 6682" transform="translate(25.856 24.073)">
      <g id="Group_6681" data-name="Group 6681">
        <path id="Path_6903" data-name="Path 6903" d="M48.213,397.733a.454.454,0,0,0-.642,0l-6.018,6.018a.454.454,0,1,0,.642.642l6.018-6.018A.454.454,0,0,0,48.213,397.733Z" transform="translate(-41.419 -397.6)" fill="#fff"/>
      </g>
    </g>
  </g>
</svg>
