<svg xmlns="http://www.w3.org/2000/svg" width="1920" height="898" viewBox="0 0 1920 898">
  <g id="Group_6720" data-name="Group 6720" transform="translate(0 -4607)">
    <rect id="Rectangle_152" data-name="Rectangle 152" width="1920" height="898" transform="translate(0 4607)" fill="#fbfbfb"/>
    <g id="right-quote-sign" transform="translate(1529.408 4674)" opacity="0.15">
      <path id="Path_6898" data-name="Path 6898" d="M683.9,57.2H578.648a17.318,17.318,0,0,0-17.312,17.312V179.764a17.318,17.318,0,0,0,17.312,17.312h50.377q-.987,41.341-19.182,66.2-14.334,19.632-43.383,32.477a17.287,17.287,0,0,0-8.586,23.233L570.339,345.3a17.31,17.31,0,0,0,22.54,8.448q34.381-14.853,58.063-37.67,28.877-27.889,39.575-62.98,10.7-35.108,10.7-95.838V74.509A17.319,17.319,0,0,0,683.9,57.2Z" transform="translate(-363.624 -57.197)" fill="#e2e2e2"/>
      <path id="Path_6899" data-name="Path 6899" d="M36.713,353.678q33.966-14.8,57.787-37.6,29.136-27.889,39.817-62.738,10.7-34.849,10.7-96.08V74.509A17.318,17.318,0,0,0,127.7,57.2H22.447A17.318,17.318,0,0,0,5.136,74.509V179.764a17.318,17.318,0,0,0,17.312,17.312H72.825q-.987,41.341-19.181,66.2Q39.309,282.908,10.26,295.753a17.287,17.287,0,0,0-8.587,23.233L14.1,345.23A17.359,17.359,0,0,0,36.713,353.678Z" transform="translate(0.001 -57.197)" fill="#e2e2e2"/>
    </g>
  </g>
</svg>
