<svg xmlns="http://www.w3.org/2000/svg" width="136.437" height="144.91" viewBox="0 0 136.437 144.91">
  <g id="Group_6713" data-name="Group 6713" transform="translate(-166 -554.407)">
    <g id="Group_6264" data-name="Group 6264" transform="translate(166 597.572)">
      <path id="Path_631" data-name="Path 631" d="M1563,1547.527v18.529l.1-.07a5.817,5.817,0,0,0,2.863,4.116l62.265,35.947a5.874,5.874,0,0,0,2.987.791,5.958,5.958,0,0,0,2.934-.791l62.335-36.088a5.854,5.854,0,0,0,2.943-5.13v-17.3l-13.069,6.358-52.111-30.008a5.929,5.929,0,0,0-5.913.009l-40.258,23.214-10.447,6.02Z" transform="translate(-1563 -1505.095)" fill="#bbe0fd"/>
      <path id="Path_632" data-name="Path 632" d="M1563,1549.76v18.529l.1-.071a5.818,5.818,0,0,0,2.863,4.116l62.265,35.947a5.874,5.874,0,0,0,2.987.791v-22.308l-43.138-37.431-10.447,6.019Z" transform="translate(-1563 -1507.329)" fill="#d6edff"/>
      <path id="Path_633" data-name="Path 633" d="M1634.251,1504.817l62.22,35.822a5.922,5.922,0,0,1,.012,10.257l-62.329,36.086a5.92,5.92,0,0,1-5.928,0l-62.263-35.948a5.922,5.922,0,0,1,0-10.258l62.372-35.961A5.929,5.929,0,0,1,1634.251,1504.817Z" transform="translate(-1563 -1503.472)" fill="#fff"/>
      <path id="Path_634" data-name="Path 634" d="M1634.251,1504.216l62.22,35.821a5.922,5.922,0,0,1,.012,10.257l-62.329,36.087a5.922,5.922,0,0,1-5.928,0l-62.263-35.947a5.923,5.923,0,0,1,0-10.259l62.372-35.96A5.885,5.885,0,0,1,1634.251,1504.216Z" transform="translate(-1563 -1503.42)" fill="#fff"/>
    </g>
    <g id="Group_6268" data-name="Group 6268" transform="translate(189.087 554.407)">
      <g id="Group_6265" data-name="Group 6265" transform="translate(0 51.216)">
        <path id="Path_635" data-name="Path 635" d="M1590.106,1548.328l41.919-24.544a3.786,3.786,0,0,1,3.787-.023L1679,1548.352a3.787,3.787,0,0,1,.019,6.57l-42.51,24.54a3.79,3.79,0,0,1-3.788,0l-42.592-24.591A3.784,3.784,0,0,1,1590.106,1548.328Z" transform="translate(-1588.236 -1513.16)" fill="#15325c" opacity="0.33"/>
        <path id="Path_636" data-name="Path 636" d="M1672.579,1533.24l-33.3,19.222-.348,19.432,33.3-18.929Z" transform="translate(-1592.551 -1514.009)" fill="#a9d1ea"/>
        <path id="Path_637" data-name="Path 637" d="M1602.91,1531.451l32.835-19.231,33.768,19.231-33.3,19.222Z" transform="translate(-1589.485 -1512.22)" fill="#bbe0fd"/>
        <path id="Path_638" data-name="Path 638" d="M1618.67,1532.245l18.279-10.7,18.792,10.7-18.535,10.7Z" transform="translate(-1590.826 -1513.013)" fill="#15325c"/>
        <path id="Path_639" data-name="Path 639" d="M1602.91,1552.965V1533.24l33.3,19.222-.348,19.432Z" transform="translate(-1589.485 -1514.009)" fill="#77b8e0"/>
      </g>
      <rect id="Rectangle_109" data-name="Rectangle 109" width="9.168" height="27.961" transform="translate(40.908 41.253)" fill="#15325c"/>
      <path id="Path_640" data-name="Path 640" d="M1637.96,1514.792l16.047-16.962,1.83,3.2-16.962,18.343" transform="translate(-1592.469 -1459.78)" fill="#15325c"/>
      <g id="Group_6266" data-name="Group 6266" transform="translate(50.992 22.003)">
        <path id="Path_641" data-name="Path 641" d="M1671.939,1494.269a13.974,13.974,0,1,1-13.98-13.98A13.916,13.916,0,0,1,1671.939,1494.269Z" transform="translate(-1643.972 -1480.289)" fill="#77b8e0"/>
        <path id="Path_642" data-name="Path 642" d="M1671.316,1498.68a13.983,13.983,0,0,1-27.343-4.125,13.723,13.723,0,0,1,.069-1.38,13.949,13.949,0,0,1,5.2-9.549C1648.929,1498.387,1661.079,1499.723,1671.316,1498.68Z" transform="translate(-1643.972 -1480.573)" fill="#77b8e0" opacity="0.24"/>
        <path id="Path_643" data-name="Path 643" d="M1667.318,1505.826a13.982,13.982,0,0,1-23.346-10.383,13.755,13.755,0,0,1,.068-1.38C1646.66,1503.831,1657.419,1507.015,1667.318,1505.826Z" transform="translate(-1643.972 -1481.461)" fill="#77b8e0" opacity="0.24"/>
      </g>
      <g id="Group_6267" data-name="Group 6267" transform="translate(23.486)">
        <path id="Path_644" data-name="Path 644" d="M1658.373,1478.471a22.221,22.221,0,1,1-22.233-22.232A22.214,22.214,0,0,1,1658.373,1478.471Z" transform="translate(-1613.907 -1456.239)" fill="#77b8e0"/>
        <path id="Path_645" data-name="Path 645" d="M1657.395,1485.483a22.236,22.236,0,0,1-43.48-6.561,21.745,21.745,0,0,1,.11-2.194,22.179,22.179,0,0,1,8.273-15.184C1621.788,1485.016,1641.11,1487.148,1657.395,1485.483Z" transform="translate(-1613.908 -1456.691)" fill="#77b8e0" opacity="0.24"/>
        <path id="Path_646" data-name="Path 646" d="M1651.036,1496.85a22.235,22.235,0,0,1-37.125-16.511,21.745,21.745,0,0,1,.11-2.194C1618.174,1493.666,1635.291,1498.744,1651.036,1496.85Z" transform="translate(-1613.908 -1458.104)" fill="#77b8e0" opacity="0.24"/>
      </g>
    </g>
  </g>
</svg>
