<svg xmlns="http://www.w3.org/2000/svg" width="513.724" height="506.787" viewBox="0 0 513.724 506.787">
  <g id="Group_6714" data-name="Group 6714" transform="translate(-196.342 -287)">
    <g id="Group_6236" data-name="Group 6236" transform="translate(438.405 297.62)">
      <g id="Group_6224" data-name="Group 6224">
        <path id="Path_490" data-name="Path 490" d="M1923.227,1210.1v104.168l-1.94,1.546-58.6-36.092-1.94-102.6,1.94-1.555Z" transform="translate(-1860.75 -1175.56)" fill="#183561"/>
        <path id="Path_491" data-name="Path 491" d="M1860.75,1177.26v104.159l60.537,34.537V1211.8Z" transform="translate(-1860.75 -1175.705)" fill="#183561"/>
        <path id="Path_492" data-name="Path 492" d="M1860.75,1177.26v14.354l60.537,34.537V1211.8Z" transform="translate(-1860.75 -1175.705)" fill="#3c6a9e"/>
        <g id="Group_6223" data-name="Group 6223" transform="translate(6.285 30.804)">
          <g id="Group_6222" data-name="Group 6222">
            <path id="Path_493" data-name="Path 493" d="M1867.62,1209.23l.027,4.776,32.9,19.057-.2-4.913Z" transform="translate(-1867.62 -1209.23)" fill="#fec400"/>
            <path id="Path_494" data-name="Path 494" d="M1885.61,1252.74l.037,4.776,32.89,19.057-.2-4.9Z" transform="translate(-1869.151 -1212.934)" fill="#fec400"/>
            <g id="Group_6220" data-name="Group 6220" transform="translate(36.705 21.289)">
              <path id="Path_495" data-name="Path 495" d="M1907.74,1232.5v4.629l12.36,7.172v-4.629Z" transform="translate(-1907.74 -1232.5)" fill="#77b8e0"/>
            </g>
            <g id="Group_6221" data-name="Group 6221" transform="translate(5.325 23.695)">
              <path id="Path_496" data-name="Path 496" d="M1873.44,1235.13v4.629l12.36,7.173V1242.3Z" transform="translate(-1873.44 -1235.13)" fill="#77b8e0"/>
            </g>
            <path id="Path_497" data-name="Path 497" d="M1869.06,1244.18v4.629l12.36,7.164v-4.62Z" transform="translate(-1867.743 -1212.205)" fill="#fff"/>
            <path id="Path_498" data-name="Path 498" d="M1889.835,1232.5l28.709,16.578v4.785l-28.764-16.733Z" transform="translate(-1869.506 -1211.211)" fill="#fff"/>
            <path id="Path_499" data-name="Path 499" d="M1889.835,1243.52l28.709,16.578v4.794l-28.764-16.742Z" transform="translate(-1869.506 -1212.149)" fill="#fff"/>
          </g>
          <path id="Path_500" data-name="Path 500" d="M1867.62,1254.85l.027,4.776,32.9,19.057-.2-4.913Z" transform="translate(-1867.62 -1213.113)" fill="#fec400"/>
          <path id="Path_501" data-name="Path 501" d="M1885.61,1289.24l.037,4.776,32.89,19.057-.2-4.913Z" transform="translate(-1869.151 -1216.041)" fill="#fec400"/>
          <path id="Path_502" data-name="Path 502" d="M1907.74,1278.12v4.629l12.36,7.173v-4.63Z" transform="translate(-1871.036 -1215.094)" fill="#77b8e0"/>
          <path id="Path_503" data-name="Path 503" d="M1873.44,1271.63v4.629l12.36,7.164v-4.629Z" transform="translate(-1868.116 -1214.542)" fill="#77b8e0"/>
          <path id="Path_504" data-name="Path 504" d="M1869.06,1280.67v4.629l12.36,7.173v-4.629Z" transform="translate(-1867.743 -1215.311)" fill="#fff"/>
          <path id="Path_505" data-name="Path 505" d="M1889.835,1280.01l28.709,16.578v4.794l-28.764-16.742Z" transform="translate(-1869.506 -1215.255)" fill="#fff"/>
        </g>
      </g>
      <g id="Group_6235" data-name="Group 6235" transform="translate(84.443 71.772)">
        <path id="Path_506" data-name="Path 506" d="M2039.708,1302.673v49.513l-2.992,1.711-80.674-51.224-2.992-46.952,2.992-1.711Z" transform="translate(-1953.05 -1254.01)" fill="#183561"/>
        <path id="Path_507" data-name="Path 507" d="M2036.716,1304.543v49.513l-83.666-49.513V1255.88Z" transform="translate(-1953.05 -1254.169)" fill="#a9d1ea"/>
        <g id="Group_6234" data-name="Group 6234" transform="translate(6.971 24.363)">
          <path id="Path_508" data-name="Path 508" d="M2019.2,1307.07l-2.479-1.446v-4.364l2.479,1.454,5.325,3.12,9.844,5.755v4.364l-9.844-5.764Z" transform="translate(-1965.441 -1282.396)" fill="#fec400"/>
          <g id="Group_6225" data-name="Group 6225" transform="translate(54.298 31.371)">
            <path id="Path_509" data-name="Path 509" d="M2020.02,1319.285v-4.355l4.785,2.8,9.844,5.764v4.355l-9.844-5.755Z" transform="translate(-2020.02 -1314.93)" fill="#fff"/>
          </g>
          <path id="Path_510" data-name="Path 510" d="M2024.056,1336.361l9.844,5.755v4.364l-9.844-5.764-5.325-3.12-7.511-4.391v-4.364l7.511,4.4Z" transform="translate(-1964.973 -1284.743)" fill="#fec400"/>
          <g id="Group_6226" data-name="Group 6226" transform="translate(39.203 31.252)">
            <path id="Path_511" data-name="Path 511" d="M2003.52,1314.8l6.148,3.6,8.408,4.922,4.9,2.873v4.364l-4.9-2.873-8.408-4.922-6.148-3.6Z" transform="translate(-2003.52 -1314.8)" fill="#fff"/>
          </g>
          <g id="Group_6227" data-name="Group 6227" transform="translate(59.998 43.429)">
            <path id="Path_512" data-name="Path 512" d="M2026.25,1328.11l8.929,5.224v4.364l-8.929-5.224Z" transform="translate(-2026.25 -1328.11)" fill="#fff"/>
          </g>
          <g id="Group_6228" data-name="Group 6228" transform="translate(30.346 17.346)">
            <path id="Path_513" data-name="Path 513" d="M2016.447,1317.193l-7.6-4.446-10.119-5.928-4.886-2.864V1299.6l4.886,2.864,10.119,5.919,7.6,4.456Z" transform="translate(-1993.84 -1299.6)" fill="#77b8e0"/>
          </g>
          <g id="Group_6229" data-name="Group 6229">
            <path id="Path_514" data-name="Path 514" d="M1985.006,1294.473l4.51,2.635v4.364l-4.51-2.644L1960.67,1285v-4.364Z" transform="translate(-1960.67 -1280.64)" fill="#fff"/>
          </g>
          <g id="Group_6230" data-name="Group 6230" transform="translate(16.102 17.868)">
            <path id="Path_515" data-name="Path 515" d="M2000.026,1312.768v4.364l-2.626-1.537-6.294-3.687-4.6-2.689-8.234-4.684v-4.364l8.234,4.684,4.6,2.689,6.294,3.687Z" transform="translate(-1978.27 -1300.17)" fill="#fff"/>
          </g>
          <g id="Group_6231" data-name="Group 6231" transform="translate(0 8.719)">
            <path id="Path_516" data-name="Path 516" d="M1975.271,1302.832l-14.6-8.3v-4.364l14.6,8.3Z" transform="translate(-1960.67 -1290.17)" fill="#fff"/>
          </g>
          <g id="Group_6232" data-name="Group 6232" transform="translate(0 17.447)">
            <path id="Path_517" data-name="Path 517" d="M1981.273,1315.775l-20.6-11.71v-4.355l20.6,11.7Z" transform="translate(-1960.67 -1299.71)" fill="#77b8e0"/>
          </g>
          <g id="Group_6233" data-name="Group 6233" transform="translate(22.103 29.999)">
            <path id="Path_518" data-name="Path 518" d="M1991.664,1317.391l6.295,3.687,9.67,5.663v4.364l-9.67-5.663-6.295-3.687-4.6-2.69-2.233-1.272v-4.364l2.233,1.271Z" transform="translate(-1984.83 -1313.43)" fill="#fff"/>
          </g>
        </g>
      </g>
    </g>
    <g id="Group_6237" data-name="Group 6237" transform="translate(196.342 403.17)">
      <path id="Path_519" data-name="Path 519" d="M1604.491,1527.14l6.039,3.482,272.587,157.214a12.28,12.28,0,0,0,12.234,0L2094.8,1572.5l3.117-1.8,6.053-3.495a12.118,12.118,0,0,0,6.11-10.582c0-.139,0-.293-.014-.434a12.042,12.042,0,0,0-6.109-10.15l-24.3-13.994L1825.465,1385.6a12.269,12.269,0,0,0-12.2,0l-208.771,120.364A12.228,12.228,0,0,0,1604.491,1527.14Z" transform="translate(-1596.353 -1298.851)" fill="#15325c" opacity="0.22"/>
      <path id="Path_520" data-name="Path 520" d="M1596.208,1455.024a12.714,12.714,0,0,1,0-1.491V1427.2l15.608,10.988,199.23-114.865a12.2,12.2,0,0,1,12.2,0l234.158,134.9,32.712,18.845,5.577,3.216,6.04,3.481a12.225,12.225,0,0,1,.015,21.166l-208.617,120.63a12.283,12.283,0,0,1-12.232,0l-278.627-160.695a12.048,12.048,0,0,1-6.048-9.54l-.019.013v-.313Z" transform="translate(-1596.167 -1293.549)" fill="#d6edff"/>
      <path id="Path_521" data-name="Path 521" d="M1914.59,1610.213v28.126a12.233,12.233,0,0,0,5.648-1.621l208.617-120.63a12.1,12.1,0,0,0,6.1-10.3l.434.349-.419-28.769v-.448l-.015.014a12.042,12.042,0,0,0-6.11-10.149l-24.3-13.994-20.032,16.594L1914.618,1610.2Z" transform="translate(-1623.27 -1304.709)" fill="#bbe0fd"/>
      <path id="Path_522" data-name="Path 522" d="M1746.236,1510.3l.073,46.833-23.549-13.751.229-42.368Z" transform="translate(-1606.941 -1308.813)" fill="#fff"/>
      <path id="Path_523" data-name="Path 523" d="M1758.44,1524.9v39.358l6.633,3.824V1531.1Z" transform="translate(-1609.978 -1310.847)" fill="#fff"/>
      <path id="Path_524" data-name="Path 524" d="M1602.272,1434.1l6.04,3.482L1880.9,1594.8a12.283,12.283,0,0,0,12.233,0l199.447-115.332,3.117-1.8,6.053-3.495a12.118,12.118,0,0,0,6.11-10.582,4.248,4.248,0,0,0-.015-.435,12.041,12.041,0,0,0-6.109-10.149l-24.3-13.994-254.191-146.45a12.271,12.271,0,0,0-12.2,0L1602.272,1412.92A12.235,12.235,0,0,0,1602.272,1434.1Z" transform="translate(-1596.165 -1290.931)" fill="#fff"/>
    </g>
    <circle id="Ellipse_13" data-name="Ellipse 13" cx="7.057" cy="7.057" r="7.057" transform="translate(399.711 420.018)" fill="#d6effb"/>
    <path id="Path_525" data-name="Path 525" d="M1809.508,1167.143l-5.6,135.389-141.151,91.749-5.6-3.016a8.736,8.736,0,0,1-4.594-7.691V1253.087a6.762,6.762,0,0,1,3.347-5.838l140.073-82.012a9.376,9.376,0,0,1,9.29-.1Z" transform="translate(-1404.624 -876.952)" fill="#a9d1ea"/>
    <path id="Path_526" data-name="Path 526" d="M1811.649,1171.038v136.273L1660.3,1393.57V1257.847a6.733,6.733,0,0,1,3.33-5.81l143.128-83.8a3.247,3.247,0,0,1,4.887,2.8Z" transform="translate(-1405.283 -877.278)" fill="#d6effb"/>
    <path id="Path_527" data-name="Path 527" d="M1808.958,1183.96v113.784l-17.913,10.2-5.379,3.074-36.778,20.96-20.374,11.61-31.993,18.234-31.069,17.712V1267.982l30.41-17.813,16.468-9.643,25.973-15.205,31.262-18.307,19.459-11.39,14.208-8.316Z" transform="translate(-1405.721 -878.655)" fill="#183561"/>
    <path id="Path_528" data-name="Path 528" d="M1665.43,1445.619l107.8,62.651a6.69,6.69,0,0,0,6.718,0l147.414-85.6a6.686,6.686,0,0,0,.025-11.55L1879.408,1383a6.687,6.687,0,0,0-4.829-.759l-192.139,42.62a6.683,6.683,0,0,0-1.817.692l-15.1,8.448A6.683,6.683,0,0,0,1665.43,1445.619Z" transform="translate(-1405.436 -895.521)" fill="#15325c" opacity="0.33"/>
    <path id="Path_529" data-name="Path 529" d="M1664.893,1422.681l112.21,64.43a9.491,9.491,0,0,0,9.49-.021l138.2-80.2a6.686,6.686,0,0,0,3.327-5.984l-.193-6.385-117.844-63.084L1660.308,1407.5v7.26a9.127,9.127,0,0,0,4.585,7.919Z" transform="translate(-1405.283 -891.209)" fill="#a9d1ea"/>
    <path id="Path_530" data-name="Path 530" d="M1660.31,1406.335l116.428,71.359a10.067,10.067,0,0,0,10.313.124l138.6-80.434a5.2,5.2,0,0,0,.1-8.932l-115.671-70.729Z" transform="translate(-1405.284 -890.041)" fill="#d6effb"/>
    <path id="Path_531" data-name="Path 531" d="M1676.31,1407.068l136.838-80.958,91.561,55.991-136.839,80.948Z" transform="translate(-1406.646 -890.756)" fill="#77b8e0"/>
    <circle id="Ellipse_14" data-name="Ellipse 14" cx="7.057" cy="7.057" r="7.057" transform="translate(248.93 508.313)" fill="#a9d1ea"/>
    <g id="Group_6238" data-name="Group 6238" transform="translate(282.592 442.637)" opacity="0.71">
      <path id="Path_532" data-name="Path 532" d="M1754.32,1396.777l18.581-11,13.961,8.261-18.581,11Z" transform="translate(-1695.878 -1338.472)" fill="#d6edff"/>
      <path id="Path_533" data-name="Path 533" d="M1810.072,1380.311l-18.581,11-13.961-8.261,18.581-11Z" transform="translate(-1697.853 -1337.303)" fill="#d6edff"/>
      <path id="Path_534" data-name="Path 534" d="M1750.187,1394.333l-13.357-7.9,18.591-10.988,13.348,7.9Z" transform="translate(-1694.389 -1337.592)" fill="#d6edff"/>
      <path id="Path_535" data-name="Path 535" d="M1726.978,1408.062l-13.348-7.9,18.581-10.988,13.357,7.9Z" transform="translate(-1692.414 -1338.76)" fill="#d6edff"/>
      <path id="Path_536" data-name="Path 536" d="M1869.583,1388.062l-18.581,11-13.961-8.262,18.581-10.988Z" transform="translate(-1702.919 -1337.963)" fill="#d6edff"/>
      <path id="Path_537" data-name="Path 537" d="M1828.222,1391.051l-18.581,11-13.961-8.261,18.581-11Z" transform="translate(-1699.399 -1338.217)" fill="#d6edff"/>
      <path id="Path_538" data-name="Path 538" d="M1851.432,1377.321l-18.59,11-13.961-8.261,18.581-11Z" transform="translate(-1701.373 -1337.048)" fill="#d6edff"/>
      <path id="Path_539" data-name="Path 539" d="M1703.559,1421.919l-13.119-8.042,18.572-10.988,13.348,7.9Z" transform="translate(-1690.44 -1339.928)" fill="#d6edff"/>
      <path id="Path_540" data-name="Path 540" d="M1860.24,1377.1l18.051-10.677,13.732,8.4-17.822,10.539Z" transform="translate(-1704.894 -1336.824)" fill="#d6edff"/>
      <path id="Path_541" data-name="Path 541" d="M1896.166,1377.34l13.247,8.1-17.557,10.384-13.467-7.969Z" transform="translate(-1706.439 -1337.753)" fill="#d6edff"/>
      <path id="Path_542" data-name="Path 542" d="M1842.09,1366.341l18.325-10.841,13.732,8.4-18.1,10.7Z" transform="translate(-1703.349 -1335.894)" fill="#d6edff"/>
      <path id="Path_543" data-name="Path 543" d="M1813.83,1404.527l18.582-11,13.961,8.261-18.581,11Z" transform="translate(-1700.943 -1339.131)" fill="#d6edff"/>
      <path id="Path_544" data-name="Path 544" d="M1773.388,1380.6l-13.348-7.9,18.581-11,13.348,7.9Z" transform="translate(-1696.365 -1336.423)" fill="#d6edff"/>
      <path id="Path_545" data-name="Path 545" d="M1796.6,1366.872l-13.357-7.9,18.59-11,13.348,7.9Z" transform="translate(-1698.339 -1335.254)" fill="#d6edff"/>
      <path id="Path_546" data-name="Path 546" d="M1823.94,1355.587l18.6-11,13.723,8.389-18.371,10.869Z" transform="translate(-1701.804 -1334.966)" fill="#d6edff"/>
      <path id="Path_547" data-name="Path 547" d="M1744.6,1423.98l13.961,8.261-19.4,11.473-13.714-8.408Z" transform="translate(-1693.42 -1341.724)" fill="#d6edff"/>
      <path id="Path_548" data-name="Path 548" d="M1743.291,1446.22l19.432-11.5,13.961,8.261L1757,1454.619Z" transform="translate(-1694.939 -1342.638)" fill="#d6edff"/>
      <path id="Path_549" data-name="Path 549" d="M1767.42,1431.987l18.581-11,13.961,8.261-18.581,11Z" transform="translate(-1696.993 -1341.469)" fill="#d6edff"/>
      <path id="Path_550" data-name="Path 550" d="M1819.8,1353.127l-13.348-7.9,18.865-11.162,13.129,8.033Z" transform="translate(-1700.315 -1334.07)" fill="#d6edff"/>
      <path id="Path_551" data-name="Path 551" d="M1780.845,1445.46l13.467,7.959-19.972,11.811-13.22-8.1Z" transform="translate(-1696.457 -1343.552)" fill="#d6edff"/>
      <path id="Path_552" data-name="Path 552" d="M1785.57,1442.727l18.59-11,13.458,7.969-18.581,10.988Z" transform="translate(-1698.538 -1342.383)" fill="#d6edff"/>
      <path id="Path_553" data-name="Path 553" d="M1726.467,1413.24l13.961,8.262-19.094,11.29-13.714-8.4Z" transform="translate(-1691.903 -1340.809)" fill="#d6edff"/>
      <path id="Path_554" data-name="Path 554" d="M1772.47,1407.517l18.59-11,13.961,8.261-18.59,11Z" transform="translate(-1697.423 -1339.386)" fill="#d6edff"/>
      <path id="Path_555" data-name="Path 555" d="M1731.12,1410.507l18.581-11,13.961,8.261-18.581,11Z" transform="translate(-1693.903 -1339.641)" fill="#d6edff"/>
      <path id="Path_556" data-name="Path 556" d="M1749.27,1421.247l18.581-11,13.961,8.261-18.581,11Z" transform="translate(-1695.448 -1340.555)" fill="#d6edff"/>
      <path id="Path_557" data-name="Path 557" d="M1790.63,1418.257l18.581-11,13.961,8.261.879-.521-19.46,11.518Z" transform="translate(-1698.968 -1340.3)" fill="#d6edff"/>
      <path id="Path_558" data-name="Path 558" d="M1833.272,1366.581l-18.582,11-13.961-8.261,18.581-11Z" transform="translate(-1699.828 -1336.134)" fill="#d6edff"/>
      <path id="Path_559" data-name="Path 559" d="M1855.19,1401.538l18.581-10.988,13.467,7.96-18.59,11Z" transform="translate(-1704.464 -1338.878)" fill="#d6edff"/>
      <path id="Path_560" data-name="Path 560" d="M1808.78,1427.828l39.816-23.558,13.458,7.968-39.816,23.549Z" transform="translate(-1700.513 -1340.046)" fill="#d6edff"/>
    </g>
    <g id="Group_6242" data-name="Group 6242" transform="translate(277.707 377.187)">
      <path id="Path_561" data-name="Path 561" d="M1750.069,1271.79l-3.431,2-7.365,4.309-13.614,7.978v6.029l13.614-7.969,7.365-4.318,3.431-2Z" transform="translate(-1688.553 -1263.318)" fill="#fff"/>
      <path id="Path_562" data-name="Path 562" d="M1709.5,1262.66l-3.422,2-7.365,4.318-13.614,7.969v6.029l13.614-7.969,7.365-4.318,3.422-2Z" transform="translate(-1685.1 -1262.541)" fill="#fff"/>
      <path id="Path_563" data-name="Path 563" d="M1709.5,1273.82l-3.422,2-7.365,4.309L1685.1,1288.1v6.038l13.614-7.978,7.365-4.309,3.422-2Z" transform="translate(-1685.1 -1263.491)" fill="#fec400"/>
      <g id="Group_6239" data-name="Group 6239" transform="translate(37.108)">
        <path id="Path_564" data-name="Path 564" d="M1789.378,1264.031l-6.359,3.723-8.71,5.1-13.988,8.2L1749.8,1287.2v6.029l10.521-6.157,13.988-8.188,8.71-5.105,6.359-3.714,2.562-1.5v-6.038Z" transform="translate(-1727.715 -1262.53)" fill="#f02098"/>
        <path id="Path_565" data-name="Path 565" d="M1745.888,1290.69l-6.614,3.87-13.614,7.968v6.029l13.614-7.968,6.614-3.87Z" transform="translate(-1725.66 -1264.927)" fill="#fff"/>
      </g>
      <g id="Group_6240" data-name="Group 6240" transform="translate(37.108 24.125)">
        <path id="Path_566" data-name="Path 566" d="M1757.022,1309.93,1746.638,1316l-7.365,4.318-13.614,7.969v6.029l13.614-7.969,7.365-4.309,10.384-6.084Z" transform="translate(-1725.66 -1290.69)" fill="#fec400"/>
        <path id="Path_567" data-name="Path 567" d="M1790.414,1290.4l-6.359,3.724-8.71,5.1-13.375,7.831v6.029l13.375-7.831,8.71-5.1,6.359-3.724,2.562-1.5V1288.9Z" transform="translate(-1728.751 -1288.9)" fill="#fff"/>
      </g>
      <g id="Group_6241" data-name="Group 6241" transform="translate(37.108 12.067)">
        <path id="Path_568" data-name="Path 568" d="M1768.087,1290.51l-8.5,4.977-11.628,6.807-6.779,3.971v6.029l6.779-3.971,11.628-6.807,8.5-4.977Z" transform="translate(-1726.981 -1276.979)" fill="#fff"/>
        <path id="Path_569" data-name="Path 569" d="M1738,1308.92l-12.342,7.218v6.038l12.342-7.228Z" transform="translate(-1725.66 -1278.546)" fill="#fff"/>
        <path id="Path_570" data-name="Path 570" d="M1791.32,1277.221l-6.358,3.714-8.71,5.1-3.632,2.122v6.029l3.632-2.123,8.71-5.1,6.358-3.724,2.562-1.5v-6.029Z" transform="translate(-1729.658 -1275.72)" fill="#fff"/>
      </g>
    </g>
    <g id="Group_6246" data-name="Group 6246" transform="translate(238.916 402.4)">
      <path id="Path_571" data-name="Path 571" d="M1642.7,1324.325v68.067l1.921,1.537,58.067-35.762,1.93-66.53-1.93-1.546Z" transform="translate(-1642.7 -1290.09)" fill="#183561"/>
      <path id="Path_572" data-name="Path 572" d="M1704.8,1291.78v68.067l-60,34.226v-68.067Z" transform="translate(-1642.879 -1290.234)" fill="#a9d1ea"/>
      <path id="Path_573" data-name="Path 573" d="M1704.8,1291.78v14.226l-60,34.225v-14.226Z" transform="translate(-1642.879 -1290.234)" fill="#3c6a9e"/>
      <g id="Group_6245" data-name="Group 6245" transform="translate(8.819 28.462)">
        <path id="Path_574" data-name="Path 574" d="M1702.795,1321.2l-.027,4.739-32.6,18.883.2-4.867Z" transform="translate(-1653.858 -1321.2)" fill="#fec400"/>
        <path id="Path_575" data-name="Path 575" d="M1684.965,1364.32l-.028,4.739-32.6,18.883.2-4.867Z" transform="translate(-1652.34 -1324.87)" fill="#fec400"/>
        <g id="Group_6243" data-name="Group 6243" transform="translate(0.311 21.097)">
          <path id="Path_576" data-name="Path 576" d="M1664.93,1344.26v4.593l-12.25,7.1v-4.583Z" transform="translate(-1652.68 -1344.26)" fill="#77b8e0"/>
        </g>
        <g id="Group_6244" data-name="Group 6244" transform="translate(31.417 23.485)">
          <path id="Path_577" data-name="Path 577" d="M1698.93,1346.87v4.593l-12.25,7.1v-4.584Z" transform="translate(-1686.68 -1346.87)" fill="#77b8e0"/>
        </g>
        <path id="Path_578" data-name="Path 578" d="M1703.26,1355.83v4.593l-12.25,7.1v-4.583Z" transform="translate(-1655.632 -1324.148)" fill="#fff"/>
        <path id="Path_579" data-name="Path 579" d="M1681.163,1344.26l-28.453,16.431v4.748l28.508-16.587Z" transform="translate(-1652.371 -1323.163)" fill="#fff"/>
        <path id="Path_580" data-name="Path 580" d="M1681.163,1355.18l-28.453,16.431v4.748l28.508-16.587Z" transform="translate(-1652.371 -1324.092)" fill="#fff"/>
      </g>
    </g>
    <g id="Group_6247" data-name="Group 6247" transform="translate(502.178 430.902)">
      <path id="Path_581" data-name="Path 581" d="M1991.477,1348.677c2.73-.273,5.125,1.109,5.859,8.445s.507,20.1.507,20.1l-4.972,22.961-5.485-.734,2.331-23.266-2.58-18.268C1987.132,1357.917,1986.016,1349.226,1991.477,1348.677Z" transform="translate(-1935.274 -1323.576)" fill="#ffd561"/>
      <path id="Path_582" data-name="Path 582" d="M1978.489,1471.661c.5-1.746,8.231-2.244,8.231-2.244l7.234,3.242c-.249,3.991-1,4.989-2.744,4.989-11.474-1.247-12.721-3.492-12.721-3.492A3.15,3.15,0,0,1,1978.489,1471.661Z" transform="translate(-1934.526 -1333.856)" fill="#052754"/>
      <path id="Path_583" data-name="Path 583" d="M1977.69,1405.4l4.489,33.176,3.742,26.938s1.746,2,8.73,1l-1.742-30.182.813-36.172Z" transform="translate(-1934.478 -1327.961)" fill="#15325c"/>
      <path id="Path_584" data-name="Path 584" d="M1959.94,1480.661c.5-1.746,8.231-2.245,8.231-2.245l7.234,3.242c-.249,3.991-1,4.989-2.744,4.989-11.474-1.247-12.721-3.491-12.721-3.491A3.2,3.2,0,0,1,1959.94,1480.661Z" transform="translate(-1932.948 -1334.622)" fill="#052754"/>
      <path id="Path_585" data-name="Path 585" d="M1967.484,1409.467l-1.248,30.931,1.248,34.173s1.746,2,8.73,1l1.5-29.434,8.109-45.191Z" transform="translate(-1933.503 -1328.027)" fill="#15325c"/>
      <path id="Path_586" data-name="Path 586" d="M1966.37,1362.089v45.1s20.953,5.737,27.937-10.476l-1-14.467,1-30.432a7.485,7.485,0,0,0-2.074-3.82,5.582,5.582,0,0,0-3.206-1.562,5.762,5.762,0,0,0-3.519.659l-15.153,8.282a7.651,7.651,0,0,0-3.985,6.717Z" transform="translate(-1933.514 -1323.383)" fill="#fec400"/>
      <path id="Path_587" data-name="Path 587" d="M1969.9,1329.42s-1.745,19.207,5.737,17.46,9.479-10.726,9.479-10.726l-5.239-6.734Z" transform="translate(-1933.8 -1321.939)" fill="#f9beae"/>
      <path id="Path_588" data-name="Path 588" d="M1978.161,1343.73l-.749,7.982s5.737,1.746,8.231-1v-6.984Z" transform="translate(-1934.454 -1323.157)" fill="#f4caab"/>
      <path id="Path_589" data-name="Path 589" d="M1974.24,1335.961a2.634,2.634,0,0,1-2-3.742s-4.24-1.745-4.24-5.239,3.244-5.737,3.244-5.737l1.745,1.247s9.728-.748,12.722,4.988-1,15.964-1,15.964h-4.23l-3.752-5.986Z" transform="translate(-1933.653 -1321.243)" fill="#052754"/>
      <circle id="Ellipse_15" data-name="Ellipse 15" cx="2.819" cy="2.819" r="2.819" transform="translate(38.884 13.061)" fill="#f9beae"/>
      <path id="Path_590" data-name="Path 590" d="M1938.154,1351.281c-.4-2.894,2.156-2.383,3.348,3.518l-3.121,1.76C1926.636,1356.615,1929.133,1350.375,1938.154,1351.281Z" transform="translate(-1930.457 -1323.654)" fill="#f9beae"/>
      <path id="Path_591" data-name="Path 591" d="M1973.344,1356.166c-4.8-3.507-10.174,4.308-10.174,4.308l-8.721,11.138-12.135-17.215-5.258,2.874s6.236,12.535,10.837,21.5a7.293,7.293,0,0,0,11.688,1.79c4.783-4.857,10.577-10.88,12.385-13.351C1976.674,1360.777,1975.741,1357.931,1973.344,1356.166Z" transform="translate(-1931.019 -1324.065)" fill="#ffd561"/>
    </g>
    <ellipse id="Ellipse_16" data-name="Ellipse 16" cx="25.232" cy="14.694" rx="25.232" ry="14.694" transform="translate(514.404 562.513)" fill="#15325c" opacity="0.33"/>
    <g id="Group_6253" data-name="Group 6253" transform="translate(428.866 537.181)">
      <path id="Path_592" data-name="Path 592" d="M1928.7,1495.58l46.394,27.026-78.268,45.588-45.982-27.437Z" transform="translate(-1850.368 -1442.362)" fill="#15325c" opacity="0.33"/>
      <g id="Group_6248" data-name="Group 6248" transform="translate(78.925 35.456)">
        <rect id="Rectangle_106" data-name="Rectangle 106" width="2.823" height="50.788" transform="matrix(-0.5, 0.866, -0.866, -0.5, 45.384, 25.409)" fill="#77b8e0"/>
      </g>
      <g id="Group_6249" data-name="Group 6249" transform="translate(121.488 27.43)">
        <path id="Path_593" data-name="Path 593" d="M1984.73,1521.853a1.614,1.614,0,0,0,1.614-1.615v-51.232a1.614,1.614,0,1,0-3.228,0v51.232A1.619,1.619,0,0,0,1984.73,1521.853Z" transform="translate(-1983.116 -1467.392)" fill="#77b8e0"/>
      </g>
      <path id="Path_594" data-name="Path 594" d="M1986.773,1513.69v10.422a2.084,2.084,0,0,1-4.168,0V1513.69Z" transform="translate(-1861.584 -1443.903)" fill="#1c427e"/>
      <g id="Group_6250" data-name="Group 6250" transform="translate(0.468 45.585)">
        <path id="Path_595" data-name="Path 595" d="M1852.45,1541.694a1.614,1.614,0,0,0,1.614-1.614V1488.85a1.614,1.614,0,1,0-3.228,0v51.232A1.618,1.618,0,0,0,1852.45,1541.694Z" transform="translate(-1850.836 -1487.236)" fill="#77b8e0"/>
      </g>
      <path id="Path_596" data-name="Path 596" d="M1854.492,1533.53v10.422a2.084,2.084,0,0,1-4.168,0V1533.53Z" transform="translate(-1850.324 -1445.592)" fill="#1c427e"/>
      <g id="Group_6251" data-name="Group 6251" transform="translate(44.84 71.802)">
        <path id="Path_597" data-name="Path 597" d="M1900.95,1570.353a1.614,1.614,0,0,0,1.614-1.614v-51.232a1.614,1.614,0,0,0-3.228,0v51.232A1.619,1.619,0,0,0,1900.95,1570.353Z" transform="translate(-1899.336 -1515.893)" fill="#77b8e0"/>
      </g>
      <path id="Path_598" data-name="Path 598" d="M1928.7,1442.26l46.394,22.588v4.437l-78.268,45.588-45.982-27.428v-4.437Z" transform="translate(-1850.368 -1437.823)" fill="#a9d1ea"/>
      <path id="Path_599" data-name="Path 599" d="M1928.7,1437.41l46.394,27.026-78.268,45.589L1850.84,1482.6Z" transform="translate(-1850.368 -1437.41)" fill="#bbe0fd"/>
      <path id="Path_600" data-name="Path 600" d="M1902.993,1562.19v10.422a2.084,2.084,0,1,1-4.168,0V1562.19Z" transform="translate(-1854.453 -1448.031)" fill="#1c427e"/>
      <g id="Group_6252" data-name="Group 6252" transform="translate(1.374 81.433)">
        <rect id="Rectangle_107" data-name="Rectangle 107" width="2.824" height="50.787" transform="translate(45.389 25.404) rotate(120.014)" fill="#77b8e0"/>
      </g>
    </g>
    <g id="Group_6257" data-name="Group 6257" transform="translate(505.941 591.369)">
      <path id="Path_601" data-name="Path 601" d="M1985.941,1567.547l-24.775,14.492-25.407-15.818,25.022-13.65Z" transform="translate(-1934.671 -1501.401)" fill="#15325c" opacity="0.33"/>
      <g id="Group_6254" data-name="Group 6254" transform="translate(24.882 51.163)">
        <path id="Path_602" data-name="Path 602" d="M1962.575,1582.843a.808.808,0,0,1-.808-.808V1553.37a.807.807,0,0,1,1.615,0v28.665A.81.81,0,0,1,1962.575,1582.843Z" transform="translate(-1961.767 -1552.563)" fill="#77b8e0"/>
      </g>
      <path id="Path_603" data-name="Path 603" d="M1961.51,1579.71v5.211a1.042,1.042,0,0,0,2.085,0v-5.211Z" transform="translate(-1936.864 -1503.711)" fill="#1c427e"/>
      <g id="Group_6255" data-name="Group 6255" transform="translate(51.268 36.671)">
        <path id="Path_604" data-name="Path 604" d="M1991.415,1567a.808.808,0,0,1-.807-.808V1537.53a.807.807,0,0,1,1.614,0V1566.2A.81.81,0,0,1,1991.415,1567Z" transform="translate(-1990.608 -1536.723)" fill="#77b8e0"/>
      </g>
      <path id="Path_605" data-name="Path 605" d="M1990.35,1563.87v5.211a1.042,1.042,0,0,0,2.084,0v-5.211Z" transform="translate(-1939.318 -1502.363)" fill="#1c427e"/>
      <g id="Group_6256" data-name="Group 6256" transform="translate(0.236 36.973)">
        <path id="Path_606" data-name="Path 606" d="M1935.635,1567.333a.808.808,0,0,1-.807-.807V1537.86a.807.807,0,0,1,1.614,0v28.666A.8.8,0,0,1,1935.635,1567.333Z" transform="translate(-1934.828 -1537.053)" fill="#77b8e0"/>
      </g>
      <path id="Path_607" data-name="Path 607" d="M1961.789,1552.572h0a1.748,1.748,0,0,1-2.606,1.194l-24.487-14.4V1536.9Z" transform="translate(-1934.581 -1500.067)" fill="#a9d1ea"/>
      <path id="Path_608" data-name="Path 608" d="M1966.959,1524.7l-7.063-3.586-25.086,14.556,25.086,14.775Z" transform="translate(-1934.591 -1498.723)" fill="#bbe0fd"/>
      <path id="Path_609" data-name="Path 609" d="M1934.57,1564.2v5.211a1.042,1.042,0,0,0,2.085,0V1564.2Z" transform="translate(-1934.57 -1502.391)" fill="#1c427e"/>
      <path id="Path_610" data-name="Path 610" d="M1961.98,1548.139l8.508-34.93,26.193-16.568,2.132,1.455-10.86,35.04-23.842,16.23Z" transform="translate(-1936.903 -1496.64)" fill="#a9d1ea"/>
      <path id="Path_611" data-name="Path 611" d="M1964.43,1549.609l8.508-34.93,26.193-16.568L1990.4,1534.6Z" transform="translate(-1937.112 -1496.766)" fill="#bbe0fd"/>
    </g>
    <g id="Group_6259" data-name="Group 6259" transform="translate(459.575 555.423)">
      <circle id="Ellipse_17" data-name="Ellipse 17" cx="2.019" cy="2.019" r="2.019" transform="translate(38.519 26.077)" fill="#052754"/>
      <path id="Path_612" data-name="Path 612" d="M1916.194,1463.79l-15.836,9.313-16.468,7.145v2.489l24.235,13.668,16.148-9.323,16.157-9.314v-2.488Z" transform="translate(-1883.89 -1457.899)" fill="#052754"/>
      <path id="Path_613" data-name="Path 613" d="M1929.15,1485.954l12.534-15.224.9,5.37Z" transform="translate(-1887.743 -1458.489)" fill="#3c6a9e"/>
      <path id="Path_614" data-name="Path 614" d="M1939.54,1469.591l-2.314,2.809-10.137,12.314-.082.1-23.046-13.375.018-.018.22-.211,14.446-13.86Z" transform="translate(-1885.599 -1457.35)" fill="#fff"/>
      <path id="Path_615" data-name="Path 615" d="M1925.372,1486.121l-.659.082-15.763,2-18.234-10.128-5.947-3.3,17.172-2,.4-.046.028-.009.311-.028Z" transform="translate(-1883.965 -1458.656)" fill="#fff"/>
      <g id="Group_6258" data-name="Group 6258" transform="translate(17.977 13.86)">
        <path id="Path_616" data-name="Path 616" d="M1927.053,1486l-.082.1-.659.082-22.6-13.33-.174-.1.4-.046.22-.21.073.046Z" transform="translate(-1903.54 -1472.5)" fill="#183561"/>
      </g>
      <path id="Path_617" data-name="Path 617" d="M1884.77,1474.97v5.883l24.18,13.522V1488.4Z" transform="translate(-1883.965 -1458.85)" fill="#77b8e0"/>
      <path id="Path_618" data-name="Path 618" d="M1911.2,1489.456v5.974l16.422-8.06Z" transform="translate(-1886.215 -1459.905)" fill="#3c6a9e"/>
    </g>
    <g id="Group_6263" data-name="Group 6263" transform="translate(595.439 486.514)">
      <g id="Group_6260" data-name="Group 6260" transform="translate(0 51.216)">
        <path id="Path_619" data-name="Path 619" d="M2034.266,1474.108l41.918-24.544a3.785,3.785,0,0,1,3.787-.022l43.187,24.59a3.786,3.786,0,0,1,.019,6.57l-42.514,24.545a3.789,3.789,0,0,1-3.787,0l-42.593-24.591A3.79,3.79,0,0,1,2034.266,1474.108Z" transform="translate(-2032.395 -1438.949)" fill="#15325c" opacity="0.33"/>
        <path id="Path_620" data-name="Path 620" d="M2116.74,1459.03l-33.3,19.222-.347,19.432,33.3-18.938Z" transform="translate(-2036.711 -1439.799)" fill="#a9d1ea"/>
        <path id="Path_621" data-name="Path 621" d="M2047.07,1457.241l32.844-19.231,33.759,19.231-33.3,19.221Z" transform="translate(-2033.644 -1438.01)" fill="#bbe0fd"/>
        <path id="Path_622" data-name="Path 622" d="M2062.83,1458.034l18.279-10.7,18.792,10.7-18.536,10.695Z" transform="translate(-2034.986 -1438.803)" fill="#15325c"/>
        <path id="Path_623" data-name="Path 623" d="M2047.07,1478.746V1459.03l33.3,19.222-.347,19.432Z" transform="translate(-2033.644 -1439.799)" fill="#77b8e0"/>
      </g>
      <rect id="Rectangle_108" data-name="Rectangle 108" width="9.168" height="27.962" transform="translate(40.909 41.253)" fill="#15325c"/>
      <path id="Path_624" data-name="Path 624" d="M2082.121,1440.572l16.046-16.962,1.839,3.211-16.962,18.344" transform="translate(-2036.628 -1385.568)" fill="#15325c"/>
      <g id="Group_6261" data-name="Group 6261" transform="translate(50.995 22.002)">
        <path id="Path_625" data-name="Path 625" d="M2116.1,1420.059a13.973,13.973,0,1,1-13.98-13.981A13.933,13.933,0,0,1,2116.1,1420.059Z" transform="translate(-2088.135 -1406.078)" fill="#77b8e0"/>
        <path id="Path_626" data-name="Path 626" d="M2115.476,1424.47a13.982,13.982,0,0,1-27.342-4.124c0-.468.022-.927.067-1.381a13.948,13.948,0,0,1,5.2-9.549C2093.089,1424.177,2105.239,1425.512,2115.476,1424.47Z" transform="translate(-2088.134 -1406.362)" fill="#77b8e0" opacity="0.24"/>
        <path id="Path_627" data-name="Path 627" d="M2111.488,1431.616a13.982,13.982,0,0,1-23.346-10.382,13.613,13.613,0,0,1,.068-1.38C2090.821,1429.621,2101.58,1432.805,2111.488,1431.616Z" transform="translate(-2088.135 -1407.251)" fill="#77b8e0" opacity="0.24"/>
      </g>
      <g id="Group_6262" data-name="Group 6262" transform="translate(23.49)">
        <path id="Path_628" data-name="Path 628" d="M2102.543,1404.262a22.22,22.22,0,1,1-22.234-22.233A22.2,22.2,0,0,1,2102.543,1404.262Z" transform="translate(-2058.072 -1382.029)" fill="#77b8e0"/>
        <path id="Path_629" data-name="Path 629" d="M2101.555,1411.273a22.236,22.236,0,0,1-43.481-6.561c0-.744.037-1.472.108-2.193a22.179,22.179,0,0,1,8.275-15.184C2065.957,1410.806,2085.27,1412.938,2101.555,1411.273Z" transform="translate(-2058.072 -1382.481)" fill="#77b8e0" opacity="0.24"/>
        <path id="Path_630" data-name="Path 630" d="M2095.2,1422.64a22.234,22.234,0,0,1-37.125-16.511c0-.744.037-1.472.109-2.193C2062.333,1419.456,2079.451,1424.534,2095.2,1422.64Z" transform="translate(-2058.071 -1383.894)" fill="#77b8e0" opacity="0.24"/>
      </g>
    </g>
    <g id="Group_6271" data-name="Group 6271" transform="translate(319.507 687.356)">
      <g id="Group_6269" data-name="Group 6269" transform="translate(0 30.256)">
        <path id="Path_647" data-name="Path 647" d="M1730.79,1661.849l.232-.156a1.46,1.46,0,0,0,.478.472l72.785,42.017a1.362,1.362,0,0,0,.639.187,1.415,1.415,0,0,0,.789-.195l18.516-10.913a1.4,1.4,0,0,0,.672-1.4l.019-.006v-12.432l-9.42,6.355-10.578-6.109-53.3-30.767a1.423,1.423,0,0,0-1.416,0l-6.646,3.84-12.736-4.027Z" transform="translate(-1730.79 -1635.828)" fill="#d6edff"/>
        <path id="Path_648" data-name="Path 648" d="M1811.82,1682.537v24.7a1.415,1.415,0,0,0,.789-.2l18.516-10.913a1.4,1.4,0,0,0,.672-1.4l.019-.006v-12.432l-9.42,6.355Z" transform="translate(-1737.688 -1638.686)" fill="#bbe0fd"/>
        <path id="Path_649" data-name="Path 649" d="M1824.227,1679.586l-18.512,10.915a1.416,1.416,0,0,1-1.428.006l-72.784-42.021a1.418,1.418,0,0,1,0-2.455l18.708-10.8a1.42,1.42,0,0,1,1.417,0l72.588,41.909A1.42,1.42,0,0,1,1824.227,1679.586Z" transform="translate(-1730.791 -1634.664)" fill="#fff"/>
        <path id="Path_650" data-name="Path 650" d="M1824.227,1679.175l-18.512,10.914a1.415,1.415,0,0,1-1.428.006l-72.784-42.021a1.418,1.418,0,0,1,0-2.455l18.708-10.8a1.421,1.421,0,0,1,1.417,0l72.588,41.909A1.42,1.42,0,0,1,1824.227,1679.175Z" transform="translate(-1730.791 -1634.629)" fill="#fff"/>
      </g>
      <g id="Group_6270" data-name="Group 6270" transform="translate(28.663)">
        <path id="Path_651" data-name="Path 651" d="M1762.12,1628.778l.233-.155a1.472,1.472,0,0,0,.477.472l72.785,42.017a1.355,1.355,0,0,0,.641.188,1.414,1.414,0,0,0,.789-.194l18.515-10.914a1.4,1.4,0,0,0,.672-1.4l.019-.006v-12.432l-9.42,6.355-10.577-6.109-53.3-30.768a1.422,1.422,0,0,0-1.416,0l-6.646,3.84-12.736-4.028Z" transform="translate(-1762.12 -1602.758)" fill="#d6edff"/>
        <path id="Path_652" data-name="Path 652" d="M1843.16,1649.457v24.7a1.414,1.414,0,0,0,.788-.194l18.515-10.914a1.4,1.4,0,0,0,.672-1.4l.02-.006v-12.432l-9.42,6.355Z" transform="translate(-1769.019 -1605.615)" fill="#bbe0fd"/>
        <path id="Path_653" data-name="Path 653" d="M1855.557,1646.515l-18.512,10.915a1.42,1.42,0,0,1-1.429.006l-72.783-42.021a1.417,1.417,0,0,1,0-2.455l18.707-10.8a1.423,1.423,0,0,1,1.418,0l72.586,41.909A1.416,1.416,0,0,1,1855.557,1646.515Z" transform="translate(-1762.121 -1601.593)" fill="#fff"/>
        <path id="Path_654" data-name="Path 654" d="M1855.557,1646.105l-18.512,10.915a1.421,1.421,0,0,1-1.429.006l-72.783-42.021a1.418,1.418,0,0,1,0-2.455l18.707-10.8a1.417,1.417,0,0,1,1.418,0l72.586,41.908A1.416,1.416,0,0,1,1855.557,1646.105Z" transform="translate(-1762.121 -1601.559)" fill="#fff"/>
      </g>
    </g>
  </g>
</svg>
